<svg width="26" height="26" viewBox="0 0 26 26" fill="none" xmlns="http://www.w3.org/2000/svg">
<g clip-path="url(#clip0)">
<path d="M12.6866 0.647461C5.67999 0.647461 0 6.17808 0 13.0004C0 19.8227 5.67999 25.3533 12.6866 25.3533C19.6931 25.3533 25.3731 19.8227 25.3731 13.0004C25.3652 6.18127 19.6899 0.655182 12.6866 0.647461ZM12.6866 24.5298C6.14706 24.5298 0.845771 19.3679 0.845771 13.0004C0.845771 6.63287 6.14706 1.47099 12.6866 1.47099C19.2261 1.47099 24.5274 6.63287 24.5274 13.0004C24.5199 19.3649 19.223 24.5226 12.6866 24.5298Z" fill="#798A9B"/>
<path d="M12.6864 2.70605C6.84756 2.70605 2.11426 7.31489 2.11426 13.0002C2.11426 18.6855 6.84756 23.2943 12.6864 23.2943C18.5252 23.2943 23.2585 18.6855 23.2585 13.0002C23.252 7.31751 18.5225 2.71239 12.6864 2.70605ZM12.6864 22.4708C7.31469 22.4708 2.96003 18.2306 2.96003 13.0002C2.96003 7.76973 7.31469 3.52958 12.6864 3.52958C18.0581 3.52958 22.4128 7.76973 22.4128 13.0002C22.4067 18.2282 18.0556 22.4648 12.6864 22.4708Z" fill="#798A9B"/>
<path d="M13.1094 4.76465H12.2637V5.58818H13.1094V4.76465Z" fill="#798A9B"/>
<path d="M13.1094 20.4121H12.2637V21.2356H13.1094V20.4121Z" fill="#798A9B"/>
<path d="M8.82281 5.66356L8.09082 6.0752L8.51358 6.78793L9.24556 6.37629L8.82281 5.66356Z" fill="#798A9B"/>
<path d="M16.8555 19.2114L16.1235 19.623L16.5463 20.3358L17.2783 19.9241L16.8555 19.2114Z" fill="#798A9B"/>
<path d="M5.57279 8.52608L5.1499 9.23926L5.88234 9.65102L6.30523 8.93785L5.57279 8.52608Z" fill="#798A9B"/>
<path d="M19.4883 16.3513L19.0654 17.0645L19.7979 17.4762L20.2207 16.763L19.4883 16.3513Z" fill="#798A9B"/>
<path d="M5.07477 12.5889H4.229V13.4124H5.07477V12.5889Z" fill="#798A9B"/>
<path d="M21.1441 12.5889H20.2983V13.4124H21.1441V12.5889Z" fill="#798A9B"/>
<path d="M5.88291 16.351L5.15039 16.7627L5.57319 17.4759L6.30571 17.0643L5.88291 16.351Z" fill="#798A9B"/>
<path d="M19.7979 8.52671L19.0654 8.93848L19.4883 9.65165L20.2208 9.23989L19.7979 8.52671Z" fill="#798A9B"/>
<path d="M8.51163 19.213L8.08887 19.9258L8.82085 20.3374L9.24361 19.6247L8.51163 19.213Z" fill="#798A9B"/>
<path d="M16.5487 5.66421L16.126 6.37695L16.858 6.7886L17.2807 6.07586L16.5487 5.66421Z" fill="#798A9B"/>
<path d="M12.264 6.41211V12.7673L8.24023 15.1181L8.67581 15.8238L12.9047 13.3532C13.0319 13.2788 13.1098 13.1449 13.1098 13.0003V6.41211H12.264Z" fill="#798A9B"/>
</g>
<defs>
<clipPath id="clip0">
<rect width="25.3731" height="24.7059" fill="white" transform="translate(0 0.647461)"/>
</clipPath>
</defs>
</svg>
